PathFileType	4	(X/Y/Z)	C:/Users/opensim2020/Desktop/walking_exp_matlab/subject01_walking04_static.trc																																																																																																																															
DataRate	CameraRate	NumFrames	NumMarkers	Units	OrigDataRate	OrigDataStartFrame	OrigNumFrames																																																																																																																											
100	100	8	43	mm	100	81	321																																																																																																																											
Frame#	Time	LFHD			RFHD			LBHD			RBHD			C7			T10			CLAV			STRN			RBAK			LSHO			LUPA			LELB			LFRM			LWRA			LWRB			LFIN			RSHO			RUPA			RELB			RFRM			RWRA			RWRB			RFIN			LASI			RASI			LPSI			RPSI			LTHI			LKNE			LTIB			LANK			LHEE			LTOE			RTHI			RKNE			RTIB			RANK			RHEE			RTOE			*39			*40			*41			*42		
		X1	Y1	Z1	X2	Y2	Z2	X3	Y3	Z3	X4	Y4	Z4	X5	Y5	Z5	X6	Y6	Z6	X7	Y7	Z7	X8	Y8	Z8	X9	Y9	Z9	X10	Y10	Z10	X11	Y11	Z11	X12	Y12	Z12	X13	Y13	Z13	X14	Y14	Z14	X15	Y15	Z15	X16	Y16	Z16	X17	Y17	Z17	X18	Y18	Z18	X19	Y19	Z19	X20	Y20	Z20	X21	Y21	Z21	X22	Y22	Z22	X23	Y23	Z23	X24	Y24	Z24	X25	Y25	Z25	X26	Y26	Z26	X27	Y27	Z27	X28	Y28	Z28	X29	Y29	Z29	X30	Y30	Z30	X31	Y31	Z31	X32	Y32	Z32	X33	Y33	Z33	X34	Y34	Z34	X35	Y35	Z35	X36	Y36	Z36	X37	Y37	Z37	X38	Y38	Z38	X39	Y39	Z39	X40	Y40	Z40	X41	Y41	Z41	X42	Y42	Z42	X43	Y43	Z43
																																																																																																																																		
81	0.8	-6.6982	1684.23071	-405.26141	-4.47312	1694.09521	-291.20352	-104.34314	1605.75073	-406.32944	-105.91841	1614.33838	-285.8345	-108.14751	1437.2583	-356.45108	-133.67703	1143.58215	-345.82962	39.06245	1375.71094	-345.659	87.08639	1220.87	-345.34579	-159.35344	1242.18567	-276.73877	-13.46556	1398.61865	-510.19937	-34.6019	1221.9386	-605.42303	-44.99307	1073.87561	-628.8219	5.87429	965.55951	-638.83545	76.64503	853.66638	-592.58234	35.90913	847.40265	-637.323	88.07623	780.46094	-626.56036	-30.83459	1401.83154	-199.03914	-82.26616	1212.41284	-82.37735	-67.3588	1088.80518	-55.89671	-19.95071	971.69202	-36.92728	47.63498	856.88275	-89.39507	28.51925	858.39703	-34.6351	62.67369	781.37122	-52.88092	51.97683	937.39905	-445.35443	41.1468	941.16473	-228.1259	-139.40359	951.86725	-404.01324	-145.34518	957.30475	-261.28885	-1.20265	606.45685	-517.45874	-23.63295	472.28564	-507.79282	-75.573	293.05917	-530.54834	-84.79402	71.62281	-488.36884	-124.13053	39.29916	-435.84766	64.3102	33.32878	-509.06049	-33.03139	613.26196	-157.66501	-25.75343	456.09665	-173.34541	-72.83773	288.039	-151.03853	-79.87662	78.48374	-179.11134	-124.80152	35.5121	-227.63878	61.72304	37.01913	-164.3786	-25.84663	1722.16736	-315.6008	3102.0105	1023.57245	1973.17151	3140.61792	1021.92126	2012.51416	NaN	NaN	NaN
82	0.81	-6.67406	1684.20251	-405.26767	-4.45325	1694.09509	-291.21066	-104.32245	1605.78528	-406.33441	-105.88379	1614.30225	-285.88699	-108.17153	1437.24121	-356.49197	-133.69598	1143.55457	-345.85303	39.0282	1375.69128	-345.65829	87.07368	1220.87854	-345.33313	-159.35939	1242.16602	-276.75882	-13.49032	1398.61316	-510.18491	-34.62135	1221.8938	-605.39508	-45.01292	1073.77026	-628.70813	5.85831	965.48956	-638.71375	76.6171	853.61725	-592.34058	35.87213	847.32141	-637.17584	88.00565	780.39771	-626.36859	-30.87825	1401.81592	-199.03186	-82.26944	1212.35486	-82.36082	-67.35415	1088.74182	-55.93074	-19.95815	971.62354	-36.98404	47.58604	856.82281	-89.529	28.49017	858.31506	-34.76015	62.64267	781.32721	-53.04942	51.98755	937.42383	-445.36435	41.14684	941.16278	-228.16614	-139.39819	951.87067	-404.02948	-145.39847	957.32721	-261.30585	-1.25261	606.42303	-517.45984	-23.67009	472.27301	-507.80252	-75.58447	293.08066	-530.56085	-84.80232	71.59528	-488.35196	-124.15762	39.31322	-435.84073	64.31371	33.33583	-509.08176	-33.01593	613.27319	-157.68063	-25.49886	455.84341	-173.44034	-72.8331	288.0354	-151.08359	-79.87735	78.44601	-179.12726	-124.81533	35.51826	-227.63713	61.74405	37.0108	-164.37724	-25.86648	1722.1582	-315.61121	3102.00146	1023.44867	1973.16296	3140.65527	1022.02081	2012.51648	NaN	NaN	NaN
83	0.82	-6.66504	1684.20251	-405.27048	-4.39783	1694.12061	-291.20563	-104.30596	1605.78638	-406.34116	-105.9143	1614.32739	-285.86679	-108.16724	1437.25854	-356.45157	-133.73538	1143.56335	-345.87784	39.00031	1375.70947	-345.67462	87.05487	1220.88452	-345.34738	-159.37926	1242.16663	-276.7594	-13.50307	1398.59631	-510.17776	-34.64599	1221.88489	-605.33838	-45.0184	1073.7561	-628.60291	5.81731	965.43805	-638.58325	76.48959	853.53394	-592.34802	35.81886	847.32269	-637.04083	87.97359	780.36505	-626.19543	-30.98746	1401.88025	-199.0146	-82.28521	1212.33875	-82.34154	-67.38097	1088.70935	-55.94209	-19.95841	971.59619	-37.03714	47.55748	856.80872	-89.63136	28.46032	858.26227	-34.85937	62.65444	781.32043	-53.12597	51.96212	937.435	-445.37921	41.10331	941.14636	-228.18459	-139.40924	951.87817	-404.04504	-145.36755	957.30188	-261.32489	-1.26794	606.44745	-517.46008	-23.69324	472.28683	-507.81937	-75.59605	293.08362	-530.56311	-84.7986	71.61166	-488.33981	-124.15573	39.32253	-435.84665	64.29506	33.32909	-509.06134	-33.01836	613.26111	-157.69911	-25.71797	456.0701	-173.36108	-72.84606	288.03226	-151.0874	-79.84562	78.45653	-179.09859	-124.80968	35.56164	-227.56534	61.73019	37.00401	-164.36583	-25.85998	1722.19214	-315.60889	3102.01978	1023.29718	1973.10181	3140.69434	1021.93396	2012.49683	NaN	NaN	NaN
84	0.83	-6.66427	1684.20581	-405.2482	-4.43123	1694.11597	-291.20035	-104.32008	1605.78442	-406.3071	-105.87438	1614.33374	-285.87054	-108.18951	1437.2583	-356.46902	-133.74585	1143.58362	-345.87442	38.96131	1375.6958	-345.65811	87.01765	1220.85657	-345.35107	-159.40994	1242.14978	-276.75894	-13.51466	1398.59106	-510.18005	-34.66088	1221.85498	-605.27576	-45.04708	1073.72595	-628.52313	5.79888	965.38983	-638.47595	76.44417	853.47992	-592.20605	35.77341	847.2356	-636.81653	87.91576	780.30017	-626.03583	-30.93319	1401.80859	-198.99898	-82.30716	1212.33472	-82.33404	-67.43391	1088.68433	-55.96727	-20.01908	971.55762	-37.118	47.55122	856.82312	-89.73836	28.42622	858.23914	-34.97031	62.63706	781.30908	-53.27758	51.97182	937.41571	-445.39288	41.13672	941.15137	-228.1799	-139.40736	951.88599	-404.04218	-145.37366	957.32867	-261.33377	-1.27668	606.43268	-517.47058	-23.69054	472.29016	-507.84564	-75.58659	293.04819	-530.57336	-84.83008	71.60905	-488.3291	-124.16784	39.35723	-435.86044	64.28931	33.3182	-509.04886	-32.96971	613.24646	-157.68866	-25.696	456.04669	-173.36694	-72.82396	288.02695	-151.05037	-79.84479	78.47554	-179.1244	-124.78928	35.56739	-227.63622	61.75165	36.99046	-164.3542	-25.85073	1722.17908	-315.59689	3101.95581	1023.20947	1973.09753	3140.65381	1021.95959	2012.53577	NaN	NaN	NaN
85	0.84	-6.65393	1684.20117	-405.25494	-4.41051	1694.09521	-291.17896	-104.31483	1605.80518	-406.30579	-105.92377	1614.33105	-285.88269	-108.19807	1437.25232	-356.46515	-133.73537	1143.573	-345.92889	38.92887	1375.68115	-345.64612	87.04626	1220.86316	-345.35464	-159.43669	1242.15857	-276.78702	-13.53412	1398.5658	-510.16187	-34.69259	1221.80469	-605.23749	-45.08946	1073.67761	-628.46423	5.76236	965.34515	-638.35321	76.38679	853.43713	-592.12024	35.73648	847.12921	-636.60071	87.86789	780.26196	-625.85333	-30.95111	1401.78101	-198.98189	-82.33602	1212.3219	-82.352	-67.44803	1088.65942	-56.00219	-19.99061	971.55255	-37.15685	47.51551	856.78448	-89.82406	28.43011	858.22986	-35.03796	62.64572	781.30206	-53.38603	51.97202	937.41022	-445.40399	41.1384	941.14697	-228.22865	-139.41829	951.89734	-404.0423	-145.34283	957.28485	-261.35849	-1.27895	606.43744	-517.47571	-23.71078	472.2709	-507.84293	-75.60665	293.04831	-530.58136	-84.7984	71.63666	-488.36456	-124.14698	39.32882	-435.87064	64.29341	33.30437	-509.06183	-32.93209	613.25153	-157.68571	-25.67993	456.07608	-173.40875	-72.81931	288.04318	-151.07605	-79.85017	78.47883	-179.10876	-124.7959	35.5073	-227.63383	61.74191	36.98709	-164.37547	-25.80584	1722.1676	-315.56299	3101.90234	1023.35968	1973.20679	3140.67896	1021.89838	2012.49158	NaN	NaN	NaN
86	0.85	-6.64872	1684.1925	-405.22675	-4.40913	1694.07788	-291.15591	-104.33704	1605.82495	-406.30209	-105.90331	1614.32434	-285.83252	-108.22775	1437.25537	-356.4527	-133.74521	1143.57214	-345.90204	38.90852	1375.66687	-345.63153	87.01681	1220.86292	-345.34909	-159.46947	1242.14441	-276.75647	-13.5538	1398.55334	-510.17407	-34.72966	1221.77148	-605.19836	-45.10566	1073.65479	-628.55969	5.6968	965.28082	-638.24469	76.37687	853.4436	-591.93909	35.6862	847.10718	-636.47113	87.81983	780.17767	-625.68524	-31.00206	1401.771	-198.96796	-82.35931	1212.29456	-82.33101	-67.46755	1088.6217	-56.02251	-20.03264	971.52185	-37.22516	47.48068	856.76385	-89.90723	28.40883	858.20502	-35.12701	62.64109	781.3269	-53.47343	51.95483	937.42737	-445.42285	41.14325	941.16113	-228.23798	-139.40881	951.88495	-404.05984	-145.36967	957.29224	-261.37512	-1.27879	606.42706	-517.48322	-23.7112	472.28021	-507.83868	-75.62131	293.09845	-530.62726	-84.801	71.62312	-488.37473	-124.19303	39.31052	-435.82413	64.28947	33.31491	-509.03076	-32.92306	613.24908	-157.6933	-25.37844	455.8454	-173.4231	-72.79283	288.05304	-151.09125	-79.86765	78.45269	-179.09398	-124.8104	35.51813	-227.64743	61.74198	37.00467	-164.33853	-25.81843	1722.17407	-315.54657	3101.97192	1023.60236	1973.04004	3140.80103	1022.05957	2012.54993	NaN	NaN	NaN
87	0.86	-6.65557	1684.20996	-405.20761	-4.42543	1694.078	-291.1517	-104.34602	1605.81665	-406.3053	-105.91695	1614.34863	-285.84537	-108.26305	1437.26978	-356.4238	-133.73972	1143.57507	-345.90866	38.87578	1375.64453	-345.62701	86.99974	1220.86255	-345.35709	-159.49345	1242.16345	-276.73523	-13.57391	1398.56189	-510.15198	-34.76984	1221.74048	-605.15936	-45.17403	1073.60596	-628.48474	5.65748	965.24359	-638.15192	76.35331	853.40356	-591.79022	35.65309	847.05737	-636.2782	87.78046	780.17725	-625.51215	-31.04371	1401.76953	-198.99997	-82.37885	1212.29346	-82.36047	-67.51917	1088.62061	-56.04267	-20.02832	971.5127	-37.28117	47.48947	856.78918	-89.96318	28.42114	858.19263	-35.19654	62.50385	781.2843	-53.5699	51.94606	937.41443	-445.45114	41.15126	941.1709	-228.27898	-139.40294	951.89172	-404.03336	-145.37263	957.30542	-261.34653	-1.25455	606.42761	-517.52429	-23.69894	472.28946	-507.87045	-75.59778	293.07703	-530.65179	-84.79246	71.60921	-488.37433	-124.18353	39.35291	-435.86169	64.30335	33.28523	-509.08301	-32.87011	613.23303	-157.71294	-25.59937	456.07019	-173.38689	-72.75046	288.06183	-151.0941	-79.85445	78.46329	-179.13727	-124.72488	35.56533	-227.60707	61.73653	36.9894	-164.37492	-25.79406	1722.17419	-315.54065	3102.09668	1023.8288	1973.03711	3140.80664	1022.10828	2012.60498	NaN	NaN	NaN
88	0.87	-6.66849	1684.23303	-405.17163	-4.43614	1694.07727	-291.13016	-104.35433	1605.81067	-406.28802	-105.89777	1614.34924	-285.79608	-108.28152	1437.2356	-356.44421	-133.7572	1143.56213	-345.91245	38.83044	1375.64783	-345.64236	86.97658	1220.86108	-345.34726	-159.54428	1242.146	-276.77396	-13.59072	1398.53735	-510.1564	-34.80315	1221.70496	-605.11322	-45.2132	1073.58459	-628.41174	5.60213	965.20178	-638.0553	76.36451	853.4054	-591.59692	35.63751	847.00085	-636.15826	87.75922	780.14294	-625.34192	-31.07422	1401.75598	-198.96638	-82.43922	1212.24829	-82.37682	-67.54739	1088.59753	-56.06861	-20.0698	971.48145	-37.3341	47.48473	856.78363	-90.01529	28.41056	858.19952	-35.23385	62.62749	781.26788	-53.60227	51.92838	937.40643	-445.47256	41.11509	941.14319	-228.29942	-139.42578	951.88898	-404.07211	-145.37344	957.26184	-261.40216	-1.24071	606.4386	-517.5473	-23.68018	472.27811	-507.88702	-75.59876	293.05301	-530.63361	-84.81331	71.59681	-488.3717	-124.15186	39.31778	-435.84256	64.28905	33.31601	-509.08499	-32.84668	613.22394	-157.73219	-25.53194	456.05344	-173.39836	-72.77304	288.04407	-151.10555	-79.84871	78.45506	-179.13635	-124.76781	35.56523	-227.66136	61.75315	36.99212	-164.39917	-25.81171	1722.1748	-315.54446	3101.91992	1023.22632	1973.1123	3140.77271	1021.88116	2012.53284	NaN	NaN	NaN
